<?xml version="1.0" encoding="utf-8"?>
<!-- Generator: Adobe Illustrator 24.0.1, SVG Export Plug-In . SVG Version: 6.00 Build 0)  -->
<svg version="1.1" id="Layer_1" xmlns="http://www.w3.org/2000/svg" xmlns:xlink="http://www.w3.org/1999/xlink" x="0px" y="0px"
	 viewBox="0 0 1200 254.1" style="enable-background:new 0 0 1200 254.1;" xml:space="preserve">
<style type="text/css">
	.st0{fill:#0071BC;}
	.st1{fill:#FFFFFF;}
</style>
<g>
	<g>
		<g>
			<path class="st0" d="M323.4,199.6c-7.4-3.3-13.3-7.9-17.5-13.9c-4.3-6-6.4-13-6.4-20.9h24.3c0.5,6,2.9,10.9,7.1,14.8
				c4.2,3.9,10.1,5.8,17.6,5.8c7.8,0,14-1.9,18.3-5.7c4.4-3.8,6.6-8.7,6.6-14.7c0-4.7-1.4-8.4-4.1-11.4c-2.7-2.9-6.1-5.2-10.2-6.8
				c-4.1-1.6-9.7-3.3-16.8-5.2c-9-2.4-16.4-4.8-22-7.3c-5.7-2.5-10.5-6.3-14.5-11.5c-4-5.2-6-12.1-6-20.7c0-8,2-15,6-20.9
				c4-6,9.6-10.6,16.7-13.8c7.2-3.2,15.5-4.8,24.9-4.8c13.4,0,24.4,3.4,33,10.1c8.6,6.7,13.3,15.9,14.3,27.6h-25.1
				c-0.4-5-2.8-9.4-7.2-13c-4.4-3.6-10.2-5.4-17.3-5.4c-6.5,0-11.8,1.7-16,5c-4.1,3.3-6.2,8.1-6.2,14.4c0,4.3,1.3,7.7,3.9,10.5
				c2.6,2.7,5.9,4.9,9.9,6.5c4,1.6,9.4,3.3,16.3,5.2c9.2,2.5,16.6,5.1,22.4,7.6c5.8,2.5,10.7,6.4,14.8,11.7c4.1,5.3,6.1,12.3,6.1,21
				c0,7-1.9,13.7-5.7,19.9c-3.8,6.3-9.3,11.3-16.5,15.1c-7.2,3.8-15.8,5.7-25.6,5.7C339.2,204.5,330.8,202.9,323.4,199.6z"/>
			<path class="st0" d="M449.8,111.8v60.8c0,4.1,1,7.1,2.9,8.9c1.9,1.8,5.2,2.7,9.9,2.7h14v18.9h-17.9c-10.2,0-18.1-2.4-23.5-7.2
				c-5.5-4.8-8.2-12.6-8.2-23.3v-60.8h-13V93.3h13V65.9h22.9v27.3h26.7v18.5H449.8z"/>
			<path class="st0" d="M496.8,118.4c4.6-8.5,10.8-15.1,18.7-19.8c7.9-4.7,16.6-7.1,26.2-7.1c8.6,0,16.2,1.7,22.6,5.1
				c6.4,3.4,11.6,7.6,15.5,12.7v-16h22.9v109.9h-22.9v-16.3c-3.9,5.2-9.1,9.5-15.8,13c-6.6,3.5-14.2,5.2-22.7,5.2
				c-9.4,0-18.1-2.4-25.9-7.3c-7.8-4.9-14.1-11.6-18.6-20.3c-4.6-8.7-6.9-18.6-6.9-29.6C489.9,136.7,492.2,126.9,496.8,118.4z
				 M575.1,128.4c-3.1-5.6-7.2-9.8-12.3-12.8c-5.1-2.9-10.5-4.4-16.4-4.4c-5.8,0-11.3,1.4-16.3,4.3c-5.1,2.9-9.1,7-12.3,12.6
				c-3.1,5.5-4.7,12.1-4.7,19.6c0,7.6,1.6,14.2,4.7,19.9c3.1,5.7,7.2,10.1,12.4,13.1c5.1,3,10.5,4.5,16.2,4.5
				c5.8,0,11.3-1.5,16.4-4.4c5-2.9,9.1-7.2,12.3-12.9c3.1-5.6,4.7-12.3,4.7-19.8C579.8,140.5,578.2,133.9,575.1,128.4z"/>
			<path class="st0" d="M678.7,111.8h-20.3v91.3h-22.9v-91.3h-13V93.3h13v-7.8c0-12.6,3.4-21.8,10.1-27.6c6.7-5.8,17.2-8.7,31.6-8.7
				v18.9c-6.9,0-11.8,1.3-14.6,3.9c-2.8,2.6-4.2,7.1-4.2,13.5v7.8h20.3V111.8z"/>
			<path class="st0" d="M744.9,111.8h-20.3v91.3h-22.9v-91.3h-13V93.3h13v-7.8c0-12.6,3.4-21.8,10.1-27.6c6.7-5.8,17.2-8.7,31.6-8.7
				v18.9c-6.9,0-11.8,1.3-14.6,3.9c-2.8,2.6-4.2,7.1-4.2,13.5v7.8h20.3V111.8z"/>
			<path class="st0" d="M912.6,93.3l-34.1,109.9h-23.9L832.4,122l-22.1,81.1h-23.9L752.1,93.3h23.1l22.9,88.3l23.3-88.3h23.7
				l22.3,87.9l22.7-87.9H912.6z"/>
			<path class="st0" d="M930.7,74.5c-2.8-2.8-4.2-6.2-4.2-10.4c0-4.1,1.4-7.6,4.2-10.4c2.8-2.8,6.2-4.2,10.4-4.2
				c4,0,7.4,1.4,10.2,4.2c2.8,2.8,4.2,6.3,4.2,10.4c0,4.1-1.4,7.6-4.2,10.4c-2.8,2.8-6.2,4.2-10.2,4.2
				C937,78.7,933.5,77.3,930.7,74.5z M952.2,93.3v109.9h-22.7V93.3H952.2z"/>
			<path class="st0" d="M998.8,200.2c-6.8-3.1-12.3-7.4-16.2-12.8c-4-5.4-6.1-11.4-6.4-18h23.5c0.4,4.7,2.6,8.5,6.7,11.7
				c4.1,3.1,9.1,4.7,15.3,4.7c6.4,0,11.3-1.2,14.9-3.7c3.5-2.5,5.3-5.6,5.3-9.5c0-4.1-2-7.2-5.9-9.2c-3.9-2-10.1-4.2-18.6-6.6
				c-8.2-2.3-15-4.5-20.1-6.6c-5.2-2.1-9.7-5.4-13.5-9.8c-3.8-4.4-5.7-10.2-5.7-17.3c0-5.8,1.7-11.2,5.2-16.1
				c3.5-4.8,8.4-8.7,14.9-11.5c6.4-2.8,13.9-4.2,22.2-4.2c12.5,0,22.6,3.2,30.2,9.5c7.6,6.3,11.7,14.9,12.3,25.8H1040
				c-0.4-4.9-2.4-8.8-6-11.8c-3.6-2.9-8.4-4.4-14.6-4.4c-6,0-10.6,1.1-13.8,3.4c-3.2,2.3-4.8,5.3-4.8,9c0,2.9,1.1,5.4,3.2,7.4
				c2.1,2,4.7,3.6,7.8,4.7c3.1,1.1,7.6,2.6,13.6,4.3c8,2.1,14.5,4.3,19.6,6.5c5.1,2.2,9.5,5.4,13.3,9.7c3.7,4.3,5.6,9.9,5.8,16.9
				c0,6.3-1.7,11.8-5.2,16.7c-3.5,4.9-8.3,8.8-14.7,11.6c-6.3,2.8-13.7,4.2-22.2,4.2C1013.4,204.9,1005.6,203.4,998.8,200.2z"/>
			<path class="st0" d="M1188.5,156.7h-83.9c0.7,8.8,3.9,15.8,9.8,21.1c5.8,5.3,13,8,21.5,8c12.2,0,20.9-5.1,25.9-15.3h24.5
				c-3.3,10.1-9.3,18.4-18,24.8c-8.7,6.4-19.5,9.7-32.4,9.7c-10.5,0-19.9-2.4-28.2-7.1c-8.3-4.7-14.8-11.4-19.5-19.9
				c-4.7-8.6-7.1-18.5-7.1-29.8c0-11.3,2.3-21.2,6.9-29.8c4.6-8.6,11-15.2,19.3-19.8c8.3-4.7,17.8-7,28.6-7
				c10.4,0,19.6,2.3,27.7,6.8c8.1,4.5,14.4,10.9,18.9,19c4.5,8.2,6.8,17.6,6.8,28.2C1189.3,149.6,1189,153.3,1188.5,156.7z
				 M1165.6,138.3c-0.1-8.4-3.1-15.1-9-20.1c-5.9-5-13.1-7.6-21.7-7.6c-7.8,0-14.6,2.5-20.1,7.5c-5.6,5-8.9,11.7-10,20.2H1165.6z"/>
		</g>
	</g>
	<g>
		<path d="M230.7,47.5v159.1c0,16.8-13.6,30.5-30.5,30.5H41.2c-16.8,0-30.5-13.7-30.5-30.5V47.5C10.7,30.7,24.3,17,41.2,17h159.1
			C217.1,17,230.7,30.7,230.7,47.5z"/>
		<g>
			<path class="st1" d="M131.6,78.2v3.6c0,3.5,2.8,6.3,6.3,6.3h20.3c3.5,0,6.3-2.8,6.3-6.3V61.4c0-3.5-2.8-6.3-6.3-6.3h-12.3h-8
				c-3.5,0-6.3,2.8-6.3,6.3V78.2z"/>
			<path class="st1" d="M183.1,111.1H84V78.2h36.9V61.4c0-7.6,5-14,11.9-16.2H74.3c-3.5,0-6.3,2.8-6.3,6.3v10.2h-9.7
				c-3.5,0-6.3,2.8-6.3,6.3v68.7c0,3.5,2.8,6.3,6.3,6.3h99.1v32.9h-49.4v-13.1c0-3.5-2.8-6.3-6.3-6.3H81.4c-3.5,0-6.3,2.8-6.3,6.3
				v20.4c0,3.5,2.8,6.3,6.3,6.3h14.1v13.1c0,3.5,2.8,6.3,6.3,6.3h65.3c3.5,0,6.3-2.8,6.3-6.3v-11.3h9.7c3.5,0,6.3-2.8,6.3-6.3v-67.5
				C189.4,113.9,186.5,111.1,183.1,111.1z"/>
		</g>
	</g>
</g>
</svg>
